<svg xmlns="http://www.w3.org/2000/svg" width="256" height="256" viewBox="0 0 256 256" fill="none">
  <defs>
    <linearGradient id="bg" x1="28" y1="24" x2="230" y2="236" gradientUnits="userSpaceOnUse">
      <stop stop-color="#0A1321"/>
      <stop offset="1" stop-color="#081018"/>
    </linearGradient>
    <linearGradient id="cyan" x1="74" y1="56" x2="184" y2="182" gradientUnits="userSpaceOnUse">
      <stop stop-color="#E6FDFF"/>
      <stop offset="0.45" stop-color="#69E7FF"/>
      <stop offset="1" stop-color="#2E91FF"/>
    </linearGradient>
    <linearGradient id="orange" x1="104" y1="76" x2="198" y2="176" gradientUnits="userSpaceOnUse">
      <stop stop-color="#FFD8A3"/>
      <stop offset="1" stop-color="#FF8A2A"/>
    </linearGradient>
  </defs>
  <rect width="256" height="256" rx="56" fill="url(#bg)"/>
  <rect x="32" y="32" width="192" height="192" rx="40" stroke="#1F344C" stroke-width="4"/>
  <path d="M86 68H183L161 97H111V116H154L134 144H111V188H86V68Z" fill="url(#cyan)"/>
  <path d="M104 68H151C184 68 207 86 207 118C207 151 183 171 149 171H129L104 188V68ZM129 95V144H148C165 144 181 136 181 119C181 102 165 95 149 95H129Z" fill="url(#orange)"/>
  <path d="M58 202H198" stroke="#69E7FF" stroke-width="6" stroke-linecap="round" opacity="0.85"/>
</svg>
