<svg xmlns="http://www.w3.org/2000/svg" width="1600" height="900" viewBox="0 0 1600 900" fill="none">
  <defs>
    <linearGradient id="bg" x1="240" y1="120" x2="1360" y2="780" gradientUnits="userSpaceOnUse">
      <stop stop-color="#09101C"/>
      <stop offset="0.55" stop-color="#10192A"/>
      <stop offset="1" stop-color="#05070C"/>
    </linearGradient>
    <linearGradient id="cyanGlow" x1="456" y1="278" x2="1128" y2="632" gradientUnits="userSpaceOnUse">
      <stop stop-color="#D6FBFF"/>
      <stop offset="0.45" stop-color="#6AE7FF"/>
      <stop offset="1" stop-color="#2F92FF"/>
    </linearGradient>
    <linearGradient id="orangeGlow" x1="588" y1="338" x2="965" y2="598" gradientUnits="userSpaceOnUse">
      <stop stop-color="#FFD28A"/>
      <stop offset="1" stop-color="#FF8A2A"/>
    </linearGradient>
    <filter id="softGlow" x="-120" y="-120" width="1840" height="1140" filterUnits="userSpaceOnUse" color-interpolation-filters="sRGB">
      <feGaussianBlur stdDeviation="28"/>
    </filter>
    <filter id="hardGlow" x="-80" y="-80" width="1760" height="1060" filterUnits="userSpaceOnUse" color-interpolation-filters="sRGB">
      <feGaussianBlur stdDeviation="10"/>
    </filter>
  </defs>
  <rect width="1600" height="900" fill="url(#bg)"/>
  <g opacity="0.48">
    <path d="M0 136H1600" stroke="#183249" stroke-width="2"/>
    <path d="M0 232H1600" stroke="#183249" stroke-width="2"/>
    <path d="M0 328H1600" stroke="#183249" stroke-width="2"/>
    <path d="M0 424H1600" stroke="#183249" stroke-width="2"/>
    <path d="M0 520H1600" stroke="#183249" stroke-width="2"/>
    <path d="M0 616H1600" stroke="#183249" stroke-width="2"/>
    <path d="M0 712H1600" stroke="#183249" stroke-width="2"/>
    <path d="M0 808H1600" stroke="#183249" stroke-width="2"/>
  </g>
  <g opacity="0.35">
    <path d="M188 0V900" stroke="#112233" stroke-width="2"/>
    <path d="M380 0V900" stroke="#112233" stroke-width="2"/>
    <path d="M572 0V900" stroke="#112233" stroke-width="2"/>
    <path d="M764 0V900" stroke="#112233" stroke-width="2"/>
    <path d="M956 0V900" stroke="#112233" stroke-width="2"/>
    <path d="M1148 0V900" stroke="#112233" stroke-width="2"/>
    <path d="M1340 0V900" stroke="#112233" stroke-width="2"/>
  </g>
  <g filter="url(#softGlow)" opacity="0.48">
    <ellipse cx="564" cy="308" rx="190" ry="74" fill="#69E7FF"/>
    <ellipse cx="994" cy="588" rx="246" ry="82" fill="#FF8A2A"/>
  </g>
  <path d="M168 744L624 504H1016L1432 650" stroke="#1A3148" stroke-width="18" stroke-linecap="round"/>
  <path d="M226 784H1398" stroke="#3A4C68" stroke-width="22" stroke-linecap="round"/>
  <path d="M316 694H566" stroke="#68E7FF" stroke-width="10" stroke-linecap="round" opacity="0.85"/>
  <path d="M1036 632H1294" stroke="#FF9F43" stroke-width="10" stroke-linecap="round" opacity="0.85"/>
  <g filter="url(#hardGlow)" opacity="0.95">
    <path d="M559 322H1018L934 435H476L559 322Z" fill="#102236"/>
    <path d="M1034 338L1135 384L944 620L844 575L1034 338Z" fill="#1E2C3F"/>
    <path d="M553 300H1038L952 418H463L553 300Z" fill="url(#cyanGlow)"/>
    <path d="M1040 320L1162 374L964 626L842 572L1040 320Z" fill="url(#orangeGlow)"/>
  </g>
  <g>
    <text x="800" y="396" fill="#E9FBFF" font-family="Verdana, Arial, sans-serif" font-size="154" font-weight="800" letter-spacing="6" text-anchor="middle">ECHO</text>
    <text x="800" y="572" fill="#E9FBFF" font-family="Verdana, Arial, sans-serif" font-size="170" font-weight="800" letter-spacing="8" text-anchor="middle">BRAWLER</text>
    <text x="800" y="658" fill="#90A7C8" font-family="Verdana, Arial, sans-serif" font-size="36" font-weight="700" letter-spacing="18" text-anchor="middle">TIME-LAG ARENA</text>
  </g>
</svg>
